<svg width="109" height="84" viewBox="0 0 109 84" fill="none" xmlns="http://www.w3.org/2000/svg">
<path d="M90.6 0C80.6 0 72.5 8.1 72.5 18.1C72.5 28.1 80.6 36.2 90.6 36.2C100.6 36.2 108.7 28.1 108.7 18.1C108.7 8.1 100.6 0 90.6 0ZM90.6 29.3C84.4 29.3 79.4 24.3 79.4 18.1C79.4 11.9 84.4 6.9 90.6 6.9C96.8 6.9 101.8 11.9 101.8 18.1C101.8 24.3 96.7 29.3 90.6 29.3Z" fill="#404041"/>
<path d="M36.2 18.1C36.2 19.6 36 21 35.7 22.4C35.1 25 33.9 27.3 32.3 29.3H18.1V22.4H28.4C28.9 21.1 29.2 19.6 29.2 18.1C29.2 11.9 24.2 6.9 18 6.9C11.8 6.9 6.8 11.9 6.8 18.1C6.8 19.6 7.1 21.1 7.6 22.4C9.3 26.5 13.3 29.3 18 29.3V36.2C12.2 36.2 7.1 33.5 3.8 29.3C2.2 27.3 1.1 24.9 0.4 22.4C0.2 21 0 19.6 0 18.1C0 8.1 8.1 0 18.1 0C28.1 0 36.2 8.1 36.2 18.1Z" fill="#404041"/>
<path d="M72.4998 3.2002C72.4998 7.4002 71.0998 11.3002 68.5998 14.4002C67.5998 15.7002 66.3998 16.9002 64.9998 17.9002C61.9998 20.1002 58.2998 21.4002 54.3998 21.4002C48.1998 21.4002 43.1998 26.4002 43.1998 32.6002H36.2998C36.2998 28.4002 37.6998 24.5002 40.1998 21.4002C41.1998 20.1002 42.3998 18.9002 43.7998 17.9002C46.7998 15.7002 50.4998 14.4002 54.3998 14.4002C60.5998 14.4002 65.5998 9.4002 65.5998 3.2002H72.4998Z" fill="#03C03C"/>
<path d="M72.4999 32.4998H65.5999C65.5999 26.2998 60.5999 21.2998 54.3999 21.2998C58.3999 21.2998 62.0999 19.9998 64.9999 17.7998C66.3999 18.7998 67.5999 19.8998 68.5999 21.2998C70.9999 24.3998 72.4999 28.2998 72.4999 32.4998Z" fill="#404041"/>
<path d="M54.3002 14.4002C50.3002 14.4002 46.6002 15.7002 43.7002 17.9002C42.3002 16.9002 41.1002 15.8002 40.1002 14.4002C37.7002 11.3002 36.2002 7.4002 36.2002 3.2002H43.1002C43.1002 9.4002 48.2002 14.4002 54.3002 14.4002Z" fill="#404041"/>
<path d="M17.8001 53.4996L14.3001 48.5996H16.0001L18.7001 52.4996L21.4001 48.5996H23.0001L19.5001 53.4996L23.2001 58.6996H21.5001L18.7001 54.5996L15.8001 58.6996H14.1001L17.8001 53.4996Z" fill="#404041"/>
<path d="M39.3001 53.3998C39.3001 54.9998 38.9001 56.2998 38.1001 57.2998C37.3001 58.1998 36.1001 58.6998 34.7001 58.6998C33.8001 58.6998 33.0001 58.4998 32.3001 58.0998C31.6001 57.6998 31.1001 57.0998 30.7001 56.2998C30.3001 55.4998 30.1001 54.5998 30.1001 53.4998C30.1001 51.8998 30.5001 50.5998 31.3001 49.6998C32.1001 48.7998 33.3001 48.2998 34.7001 48.2998C36.1001 48.2998 37.2001 48.7998 38.1001 49.6998C38.8001 50.4998 39.3001 51.7998 39.3001 53.3998ZM31.6001 53.3998C31.6001 54.6998 31.9001 55.6998 32.4001 56.2998C32.9001 56.9998 33.7001 57.2998 34.7001 57.2998C35.7001 57.2998 36.5001 56.9998 37.0001 56.2998C37.5001 55.5998 37.8001 54.5998 37.8001 53.2998C37.8001 51.9998 37.5001 50.9998 37.0001 50.3998C36.5001 49.6998 35.7001 49.3998 34.7001 49.3998C33.7001 49.3998 32.9001 49.6998 32.4001 50.3998C31.8001 51.0998 31.6001 52.0998 31.6001 53.3998Z" fill="#404041"/>
<path d="M52.5999 51.3998H57.1999V57.8998C56.4999 58.0998 55.7999 58.2998 54.9999 58.3998C54.2999 58.4998 53.3999 58.5998 52.3999 58.5998C50.3999 58.5998 48.7999 57.9998 47.5999 56.7998C46.4999 55.5998 45.8999 53.8998 45.8999 51.6998C45.8999 50.2998 46.1999 49.0998 46.6999 47.9998C47.2999 46.8998 48.0999 46.0998 49.0999 45.5998C50.1999 44.9998 51.3999 44.7998 52.7999 44.7998C54.1999 44.7998 55.5999 45.0998 56.7999 45.5998L56.3999 46.9998C55.1999 46.4998 53.9999 46.1998 52.8999 46.1998C51.2999 46.1998 49.9999 46.6998 49.0999 47.6998C48.1999 48.6998 47.6999 49.9998 47.6999 51.7998C47.6999 53.5998 48.0999 54.9998 48.9999 55.8998C49.8999 56.7998 51.1999 57.2998 52.8999 57.2998C53.7999 57.2998 54.6999 57.1998 55.5999 56.9998V52.8998H52.5999V51.3998Z" fill="#404041"/>
<path d="M70.4998 58.6002V57.0002C69.9998 57.6002 69.4998 58.1002 68.9998 58.3002C68.4998 58.5002 67.8998 58.6002 67.0998 58.6002C66.0998 58.6002 65.2998 58.3002 64.6998 57.8002C64.0998 57.3002 63.7998 56.6002 63.7998 55.6002C63.7998 53.6002 65.3998 52.5002 68.6998 52.4002L70.3998 52.3002V51.7002C70.3998 50.9002 70.1998 50.3002 69.8998 49.9002C69.5998 49.5002 68.9998 49.3002 68.2998 49.3002C67.4998 49.3002 66.4998 49.6002 65.3998 50.1002L65.0998 49.0002C65.5998 48.7002 66.0998 48.5002 66.6998 48.4002C67.2998 48.2002 67.8998 48.2002 68.4998 48.2002C69.6998 48.2002 70.5998 48.5002 71.1998 49.0002C71.7998 49.5002 72.0998 50.4002 72.0998 51.6002V58.7002H70.4998V58.6002ZM67.4998 57.4002C68.4998 57.4002 69.1998 57.1002 69.6998 56.6002C70.1998 56.1002 70.4998 55.3002 70.4998 54.4002V53.5002H68.9998C67.7998 53.5002 66.8998 53.7002 66.3998 54.1002C65.8998 54.4002 65.5998 55.0002 65.5998 55.7002C65.5998 56.3002 65.7998 56.7002 66.0998 57.0002C66.3998 57.2002 66.8998 57.4002 67.4998 57.4002Z" fill="#404041"/>
<path d="M91.6999 58.5998V51.9998C91.6999 51.1998 91.4999 50.5998 91.1999 50.1998C90.8999 49.7998 90.2999 49.5998 89.5999 49.5998C88.5999 49.5998 87.8999 49.8998 87.4999 50.3998C86.9999 50.9998 86.7999 51.7998 86.7999 52.9998V58.5998H85.2999V51.9998C85.2999 51.1998 85.0999 50.5998 84.7999 50.1998C84.4999 49.7998 83.8999 49.5998 83.1999 49.5998C82.1999 49.5998 81.4999 49.8998 81.0999 50.4998C80.6999 51.0998 80.3999 51.9998 80.3999 53.2998V58.5998H78.8999V48.2998H80.3999V49.9998C80.6999 49.4998 81.0999 49.0998 81.6999 48.7998C82.1999 48.4998 82.7999 48.3998 83.4999 48.3998C85.0999 48.3998 86.0999 48.9998 86.5999 50.0998H86.6999C86.9999 49.5998 87.3999 49.1998 87.9999 48.7998C88.5999 48.4998 89.1999 48.2998 89.9999 48.2998C91.0999 48.2998 91.9999 48.5998 92.5999 49.1998C93.1999 49.7998 93.4999 50.6998 93.4999 51.9998V58.5998H91.6999Z" fill="#404041"/>
<path d="M105 58.5996C103.5 58.5996 102.3 58.0996 101.5 57.1996C100.6 56.2996 100.2 54.9996 100.2 53.3996C100.2 51.7996 100.6 50.4996 101.4 49.4996C102.2 48.4996 103.3 48.0996 104.6 48.0996C105.9 48.0996 106.9 48.4996 107.6 49.2996C108.3 50.0996 108.7 51.1996 108.7 52.5996V53.5996H101.7C101.7 54.7996 102 55.6996 102.6 56.2996C103.2 56.8996 104 57.1996 105 57.1996C106 57.1996 106.9 56.9996 107.9 56.6996L108.3 57.8996C107.8 58.0996 107.2 58.2996 106.8 58.3996C106.2 58.5996 105.7 58.5996 105 58.5996ZM104.6 49.3996C103.8 49.3996 103.1 49.6996 102.7 50.1996C102.2 50.6996 101.9 51.4996 101.8 52.3996H107.1C107.1 51.3996 106.9 50.6996 106.5 50.1996C106 49.6996 105.4 49.3996 104.6 49.3996Z" fill="#404041"/>
<path d="M7.5 46.1998V44.7998H0V58.5998H7.5V57.1998H1.6V52.3998H7.5V50.9998H1.6V46.1998H7.5Z" fill="#404041"/>
<path d="M41 70.5004C40.7 70.2004 40.3 69.9004 39.9 69.8004C39.5 69.6004 39 69.5004 38.6 69.5004H29.6L34.1 64.2004L32.7 62.9004L26.4 70.3004L27.8 71.6004H38.7C39.1 71.6004 39.4 71.7004 39.7 72.0004C40 72.3004 40.1 72.6004 40.1 73.0004V74.6004C40.1 75.0004 40 75.3004 39.7 75.5004C39.4 75.7004 39.2 75.8004 38.9 75.8004H22.3C21.9 75.8004 21.5 75.6004 21.2 75.3004C20.9 75.0004 20.8 74.6004 20.9 74.2004L21.5 71.0004L19.6 70.7004L18.8 74.5004C18.7 74.9004 18.5 75.2004 18.2 75.4004C17.9 75.6004 17.5 75.8004 17.1 75.8004H15.5H14C13.6 75.8004 13.3 75.7004 13 75.4004C12.7 75.1004 12.6 74.8004 12.6 74.3004V72.9004C12.6 72.4004 12.5 72.0004 12.3 71.6004C12.1 71.2004 11.9 70.8004 11.6 70.5004C11.3 70.2004 10.9 69.9004 10.5 69.8004C10.1 69.6004 9.6 69.5004 9.2 69.5004H3.8C3.3 69.5004 2.8 69.6004 2.3 69.8004C1.8 70.0004 1.4 70.3004 1.1 70.6004C0.8 70.9004 0.5 71.3004 0.3 71.8004C0.1 72.3004 0 72.7004 0 73.3004V83.9004H2V73.1004C2 72.7004 2.2 72.3004 2.5 72.0004C2.8 71.7004 3.2 71.5004 3.6 71.5004H4.8L4.3 74.1004C4.2 74.6004 4.2 75.1004 4.4 75.6004C4.5 76.1004 4.7 76.5004 5 76.8004C5.3 77.2004 5.6 77.4004 6.1 77.7004C6.4 77.9004 6.9 78.0004 7.4 78.0004H10.2C10.6 78.0004 10.9 77.9004 11.2 77.8004C11.5 77.6004 11.7 77.4004 11.9 76.9004C12.2 77.3004 12.6 77.6004 13 77.7004C13.4 77.9004 13.9 78.0004 14.3 78.0004H15.6H17.1C17.6 78.0004 18.1 77.9004 18.6 77.6004C19.1 77.3004 19.5 77.0004 19.7 76.5004C19.8 76.7004 19.9 76.9004 20.1 77.1004C20.3 77.3004 20.5 77.4004 20.7 77.6004C20.9 77.7004 21.2 77.8004 21.4 77.9004C21.8 78.0004 22 78.0004 22.3 78.0004H23.8H38.5C39 78.0004 39.4 77.9004 39.8 77.7004C40.2 77.5004 40.6 77.3004 40.9 77.0004C41.2 76.7004 41.5 76.3004 41.7 75.9004C41.9 75.5004 42 75.0004 42 74.5004V72.8004C42 72.3004 41.9 71.9004 41.7 71.5004C41.5 71.1004 41.3 70.8004 41 70.5004ZM10.6 75.8004H7.2C6.8 75.8004 6.5 75.7004 6.3 75.4004C6.1 75.1004 6 74.8004 6.1 74.5004L6.6 71.6004H9.3C9.7 71.6004 10 71.7004 10.2 72.0004C10.5 72.2004 10.6 72.5004 10.6 72.9004V75.8004V75.8004Z" fill="#404041"/>
<path d="M31.0001 62.6002L30.0001 61.7002L25.1001 67.5002L26.1001 68.4002L31.0001 62.6002Z" fill="#404041"/>
<path d="M59.7998 70.5C59.4998 70.2 59.0998 69.9 58.6998 69.8C58.2998 69.6 57.7998 69.5 57.3998 69.5H55.9998C55.1998 69.5 54.4998 69.7 53.9998 70.2C53.3998 70.7 52.9998 71.3 52.8998 72.1L52.4998 74.2C52.3998 74.7 52.3998 75.2 52.5998 75.6C52.6998 76.1 52.8998 76.5 53.1998 76.8C53.4998 77.2 53.7998 77.4 54.2998 77.7C54.6998 77.9 55.1998 78 55.6998 78H57.7998C57.9998 78 58.1998 78 58.3998 78C58.5998 78 58.7998 77.9 58.8998 77.8V78.1C58.8998 78.8 58.5998 79.4 58.2998 79.9C57.8998 80.4 57.3998 80.8 56.7998 81L53.7998 82L54.3998 83.9L57.1998 82.9C57.6998 82.7 58.1998 82.5 58.6998 82.1C59.0998 81.8 59.4998 81.4 59.7998 80.9C60.0998 80.5 60.3998 80 60.4998 79.5C60.6998 79 60.7998 78.4 60.7998 77.9V72.9C60.7998 72.4 60.6998 72 60.4998 71.6C60.2998 71.1 60.0998 70.8 59.7998 70.5ZM58.8998 75.8H55.4998C55.0998 75.8 54.8998 75.7 54.5998 75.4C54.3998 75.1 54.2998 74.8 54.3998 74.5L54.7998 72.6C54.8998 72.3 54.9998 72 55.1998 71.9C55.3998 71.7 55.6998 71.6 55.9998 71.6H57.5998C57.9998 71.6 58.2998 71.7 58.4998 72C58.7998 72.2 58.8998 72.5 58.8998 72.9V75.8V75.8Z" fill="#404041"/>
<path d="M94.1001 70.5004C93.8001 70.2004 93.4001 69.9004 93.0001 69.8004C92.6001 69.6004 92.1001 69.5004 91.7001 69.5004H82.7001L87.2001 64.2004L85.8001 62.9004L79.5001 70.3004L80.9001 71.6004H91.8001C92.2001 71.6004 92.5001 71.7004 92.8001 72.0004C93.1001 72.3004 93.2001 72.6004 93.2001 73.0004V74.6004C93.2001 75.0004 93.1001 75.3004 92.8001 75.5004C92.5001 75.7004 92.3001 75.8004 92.0001 75.8004H74.7001C74.3001 75.8004 73.9001 75.7004 73.6001 75.4004C73.3001 75.1004 73.1001 74.8004 73.1001 74.4004V70.5004H71.2001V78.0004C71.2001 78.7004 71.0001 79.3004 70.6001 79.8004C70.2001 80.3004 69.7001 80.7004 69.1001 80.9004L66.1001 81.9004L66.7001 83.7004L69.5001 82.7004C70.0001 82.5004 70.5001 82.3004 70.9001 81.9004C71.3001 81.6004 71.7001 81.2004 72.0001 80.8004C72.3001 80.4004 72.6001 79.9004 72.7001 79.4004C72.9001 78.9004 73.0001 78.4004 73.0001 77.8004V77.0004C73.2001 77.3004 73.5001 77.5004 73.8001 77.7004C74.1001 77.8004 74.5001 77.9004 74.8001 77.9004H77.0001H91.7001C92.2001 77.9004 92.6001 77.8004 93.0001 77.6004C93.4001 77.4004 93.8001 77.2004 94.1001 76.9004C94.4001 76.6004 94.7001 76.2004 94.9001 75.8004C95.1001 75.4004 95.2001 74.9004 95.2001 74.4004V72.7004C95.2001 72.2004 95.1001 71.8004 94.9001 71.4004C94.7001 71.1004 94.5001 70.8004 94.1001 70.5004Z" fill="#404041"/>
<path d="M84.1998 62.6002L83.1998 61.7002L78.2998 67.5002L79.2998 68.4002L84.1998 62.6002Z" fill="#404041"/>
<path d="M107.6 61.7002H105.7V78.0002H107.6V61.7002Z" fill="#404041"/>
<path d="M73.4002 65H71.2002V67.2H73.4002V65Z" fill="#404041"/>
<path d="M18.9998 81.2998H16.7998V83.4998H18.9998V81.2998Z" fill="#404041"/>
<path d="M22.3001 81.2998H20.1001V83.4998H22.3001V81.2998Z" fill="#404041"/>
</svg>
