<svg width="109" height="36" viewBox="0 0 109 36" fill="none" xmlns="http://www.w3.org/2000/svg">
<path d="M90.4308 0C80.4334 0 72.3447 8.05013 72.3447 18C72.3447 27.9499 80.4334 36 90.4308 36C100.428 36 108.517 27.9499 108.517 18C108.517 8.05013 100.404 0 90.4308 0ZM90.4308 29.1135C84.251 29.1135 79.2642 24.1266 79.2642 18C79.2642 11.8496 84.2749 6.88654 90.4308 6.88654C96.5868 6.88654 101.597 11.8734 101.597 18C101.597 24.1504 96.5868 29.1135 90.4308 29.1135Z" fill="#333333"/>
<path d="M36.1722 18C36.1722 19.4723 36.0051 20.8971 35.6711 22.2507C35.0507 24.7916 33.8816 27.1425 32.3068 29.1372H18.0861V22.2507H28.4176C28.9664 20.9446 29.2527 19.496 29.2527 18C29.2527 11.8496 24.242 6.88654 18.0861 6.88654C11.9063 6.88654 6.91948 11.8496 6.91948 18C6.91948 19.496 7.22966 20.9446 7.75459 22.2507C9.42481 26.2876 13.4333 29.1372 18.0861 29.1372V36C12.3119 36 7.18194 33.3166 3.86536 29.1372C2.29059 27.1425 1.12143 24.8153 0.501066 22.2507C0.167022 20.8971 0 19.4723 0 18C0 8.05013 8.08863 0 18.0861 0C28.0835 0 36.1722 8.05013 36.1722 18Z" fill="#333333"/>
<path d="M72.3445 3.20588C72.3445 7.40904 70.9129 11.256 68.4792 14.3431C67.4532 15.6491 66.2363 16.8127 64.9001 17.7863C61.8937 19.9473 58.2192 21.2059 54.2584 21.2059C48.0786 21.2059 43.068 26.1927 43.068 32.3193H36.1724C36.1724 28.1162 37.6278 24.2455 40.0377 21.2059C41.0637 19.8998 42.2806 18.7362 43.6168 17.7626C46.5993 15.6017 50.2738 14.3193 54.2346 14.3193C60.4144 14.3193 65.4012 9.33252 65.4012 3.18213H72.3445V3.20588Z" fill="#03C03C"/>
<path d="M72.3445 32.3429H65.4488C65.4488 26.1925 60.4382 21.2294 54.2822 21.2294C58.243 21.2294 61.9414 19.9471 64.9239 17.7861C66.2839 18.7597 67.477 19.9233 68.5029 21.2294C70.889 24.269 72.3445 28.1397 72.3445 32.3429Z" fill="#333333"/>
<path d="M54.2575 14.3433C50.2967 14.3433 46.6222 15.6256 43.6397 17.7865C42.2797 16.8129 41.0867 15.6493 40.0607 14.3433C37.6508 11.2799 36.1953 7.40922 36.1953 3.20605H43.0909C43.0671 9.35645 48.0777 14.3433 54.2575 14.3433Z" fill="#333333"/>
</svg>
